<?xml version="1.0" encoding="utf-8"?>
<!-- Generator: Adobe Illustrator 21.0.0, SVG Export Plug-In . SVG Version: 6.00 Build 0)  -->
<svg version="1.2" baseProfile="tiny" id="Capa_1" xmlns="http://www.w3.org/2000/svg" xmlns:xlink="http://www.w3.org/1999/xlink"
	 x="0px" y="0px" viewBox="0 0 1366 768" xml:space="preserve">
<path fill="#39B54A" d="M381.2,367.5c28.9,18,25.9,46,25.9,72.7c0,46.7-0.2,93.4-0.8,140.1c-0.3,23.3-16.6,41-40.4,41.5
	c-46.6,1-93.3,0.3-144.2,0.3c0-24.6-0.1-49.5,0-74.4c0.2-41.1,0.9-82.3,0.7-123.4c0-6.6-2.8-13.8-6.1-19.7
	c-13.9-24.9-11.9-49.4,6.2-70.9c1.9-2.3,3.6-5.9,3.5-8.8c-1.4-38.6-3.5-77.2-4.8-115.9c-0.5-16.5,2-33.1,0.3-49.4
	c-1.4-13.8,4.9-16.3,15.7-16.2c37.4,0.3,74.8,0.7,112.2,1.1c8.8,0.1,17.6-0.3,26.3,0.4c19,1.6,27.6,9.5,27.4,28
	c-0.3,32.9-2.4,65.9-3,98.8c-0.2,13,1,26.2,2.6,39.1C405.3,331.3,397.8,353.7,381.2,367.5z M330.1,407.8
	c-36.2-4.7-36.2-4.7-36.9,27.2c-0.8,37.3-2.1,74.6-2.1,111.9c0,4.6,7.9,12.2,10.1,13c14.5,5.2,23,8.7,30.9-5.2
	c0.8-1.4,1.2-3.1,1.1-4.7c-0.9-30.2-2.2-60.3-2.9-90.5C329.8,442.6,330.1,425.7,330.1,407.8z M314.4,207.9
	c-19.2,0.4-19.2,0.4-19.6,19.9c-0.1,3.3-0.8,6.5-0.8,9.8c-0.1,28.8-0.6,57.5,0,86.3c0.3,17.3,15.2,14.3,25.6,15.1
	c13.1,1,11.8-8.3,11.7-17.9c-0.3-26.8-0.4-53.7,1.6-80.3C334.8,213.1,332.8,207.5,314.4,207.9z"/>
<path fill="#161616" d="M976.6,624.3c-21,0-40.7-0.8-60.3,0.3c-12.8,0.7-17.3-6-17.7-16.3c-0.7-17-0.3-34.1,0-51.1
	c0.5-26.3,1.6-52.5,1.9-78.8c0.3-29.1,0-58.2-0.2-87.2c-0.4-56.6-1.3-113.1-1.4-169.7c-0.1-20.3,0.6-40.8,2.8-61
	c0.5-4.7,8-11.5,13-12.3c12.9-1.9,26.4-0.2,39.5-1.2c17.2-1.4,20.5,8.9,20.7,22.5c1.1,54.2,2.1,108.3,3.2,162.5
	c0.1,4.8,1.3,9.5,2,14.8c12.6,0,24,0,37.3,0c0.6-8.6,1.4-16.6,1.5-24.6c0.6-45.6,0.6-91.3,1.6-136.9c0.2-11.6,2.6-23.3,5.4-34.7
	c0.6-2.5,6.8-5.1,10.5-5.3c12.6-0.6,25.4-1,37.9,0.2c13.2,1.2,21.6,7.5,21.5,23.1c-0.8,78.6-1,157.2-1.5,235.8
	c-0.5,68-1.4,136.1-1.4,204.1c0,11.1-2.4,16.4-14.2,16.4c-16.5,0.1-33,1.7-49.4,1.2c-3.2-0.1-8.8-6.5-9-10.2
	c-1.3-23.5-1.6-47.1-1.7-70.7c-0.2-34.1-0.7-68.2,0.4-102.3c0.5-15.7-4.5-22.4-20.1-20.7c-6.4,0.7-12.8,1.3-22.3,2.2
	C976.6,491.2,976.6,557.3,976.6,624.3z"/>
<path fill="#39B54A" d="M631.6,258.1c-22.7,0-41.6,0-61.9,0c0-15.5,0.6-29.4-0.4-43.2c-0.2-3.4-5.3-7.7-9-9.1
	c-3.6-1.3-8.5,0.8-12.8,1.2c-9.6,0.9-21.9-1.6-27.8,3.5c-4.4,3.8-0.6,17.2-0.5,26.4c0.8,77.5,1.7,155,2.3,232.5
	c0.2,27.4,0,54.7,0,84.8c10,0.9,23.9,3.3,37.6,2.8c3-0.1,8.3-10.2,8.2-15.6c-0.7-37.1-2.6-74.1-4.1-111.1
	c-0.5-12.8,2.8-26.2-13.1-34.4c-3.9-2-3.8-14-3.8-21.3c0.1-39.7,0.3-39.7,39.7-40.8c9.4-0.3,18.7-0.1,28.1-0.1
	c17.7,0.1,21.6,3.9,21.6,22.4c0,42.4-0.2,84.8-0.2,127.2c0,30.7,0,61.4,0.1,92c0.1,31.7-19.2,50-50.8,49.2
	c-30.2-0.8-60.4-1.1-90.6-1c-31.7,0.2-49.1-14.6-49.3-46.5c-0.4-55.4,1.8-110.9,1.4-166.3c-0.4-55.8-3-111.7-3.6-167.5
	c-0.3-23.6,1-47.4,3.5-70.8c1.7-15.8,18.2-30.1,34.4-30.5c38.5-0.9,77.1-1.7,115.5-0.4c28.8,1,37.7,13,36.3,41.2
	c-0.6,12.6-0.7,25.2-0.9,37.8C631.5,232.4,631.6,244.4,631.6,258.1z"/>
<path fill="#161616" d="M850.9,259.4c-15.3,0.9-31.1,4.1-45.8,1.4c-15.3-2.9-14.6-19.8-15.3-31.6c-1-16.8-4.1-21.9-20.3-21.7
	c-17.3,0.2-20.4,4.6-20.4,21.9c0.3,68.3,0,136.5-0.1,204.8c0,32.5,0.2,65-0.1,97.5c-0.1,6.9-1.7,13.8-3.2,25.1
	c7.2,2.5,15.3,7.5,23.7,7.9c20.5,0.9,20.1-1,18-21.7c-1.6-15.8,1.1-32,2-51.3c17.9,1.2,36.3,1.4,54.4,4.1
	c4.7,0.7,11.6,8.7,11.8,13.6c1.5,26.3,2,52.8,1.2,79.2c-0.9,27.3-8.8,35.1-36,36.2c-37.8,1.5-75.7,2.2-113.6,2.3
	c-22,0.1-31.1-6.8-32.4-28.5c-2.3-37.3-2.2-74.8-2.2-112.2c0-56.1,0.5-112.2,1.6-168.2c0.3-13.7,3.6-27.3,5.5-40.4
	c-1.5-5.2-4.2-10.5-4.3-15.9c-0.5-26.9-0.3-53.8-0.2-80.7c0.1-17.3,13.7-34.9,32.3-35.3c42.6-1.1,85.4-0.3,127.9,1.9
	c12,0.6,19.5,12.2,20.2,25c1,19.2,2.5,38.6,0.8,57.6"/>
</svg>
